# xmcd
#
# Track frame offsets:
#	150
#	17622
#	32662
#	47450
#	57675
#	73070
#	92282
#	107200
#	124260
#	140757
#	158917
#	176392
#	191430
#	206217
#	216445
#	231842
#	251052
#	265970
#	283032
#	299527
#
# Disc length: 4233 seconds
#
# Revision: 1
# Processed by: cddbd v1.5.2PL0 Copyright (c) Steve Scherf et al.
# Submitted via: audiograbber 1.83.01
#
DISCID=39108714
DTITLE=Top Hits Monthly Country - THC0103
DYEAR=2001
DGENRE=Karaoke
TTITLE0=Keith Urban - But For The Grace Of God (vocals)
TTITLE1=Darryl Worley - Good Day To Run (vocals)
TTITLE2=Garth Brooks - Wild Horses (vocals)
TTITLE3=George Strait - Don't Make Me Come Over There And Love You (vocals)
TTITLE4=Pam Tillis - Please (vocals)
TTITLE5=Travis Tritt - It's Great Day To Be Alive (vocals)
TTITLE6=Andy Griggs - You Made Me That Way (vocals)
TTITLE7=Toby Keith - You Shouldn't Kiss Me Like This (vocals)
TTITLE8=Diamond Rio - One More Day (vocals)
TTITLE9=Chalee Tennison - Go Back (vocals)
TTITLE10=Keith Urban - But For The Grace Of God
TTITLE11=Darryl Worley - Good Day To Run
TTITLE12=Garth Brooks - Wild Horses
TTITLE13=George Strait - Don't Make Me Come Over There And L
TTITLE14=Pam Tillis - Please
TTITLE15=Travistritt - It's Great Day To Be Alive
TTITLE16=Andy Griggs - You Made Me That Way
TTITLE17=Toby Keith - You Shouldn't Kiss Me Like This
TTITLE18=Diamond Rio - One More Day
TTITLE19=Chalee Tennison - Go Back
EXTD=
EXTT0=
EXTT1=
EXTT2=
EXTT3=
EXTT4=
EXTT5=
EXTT6=
EXTT7=
EXTT8=
EXTT9=
EXTT10=
EXTT11=
EXTT12=
EXTT13=
EXTT14=
EXTT15=
EXTT16=
EXTT17=
EXTT18=
EXTT19=
PLAYORDER=
